<svg width="30.000000" height="23.000000" viewBox="0 0 30 23" fill="none" xmlns="http://www.w3.org/2000/svg" xmlns:xlink="http://www.w3.org/1999/xlink">
	<desc>
			Created with Pixso.
	</desc>
	<defs/>
	<path id="credit-card" d="M25.98 23L4.01 23C1.8 23 0 21.2 0 19L0 4C0 1.79 1.8 0 4.01 0L25.98 0C28.19 0 30 1.79 30 4L30 19C30 21.2 28.19 23 25.98 23ZM4.01 1.14C2.43 1.14 1.14 2.42 1.14 4L1.14 19C1.14 20.57 2.43 21.85 4.01 21.85L25.98 21.85C27.56 21.85 28.85 20.57 28.85 19L28.85 4C28.85 2.42 27.56 1.14 25.98 1.14L4.01 1.14ZM20.7 3.35C22.13 3.35 23.29 4.51 23.29 5.94C23.29 7.36 22.13 8.52 20.7 8.52C19.27 8.52 18.1 7.36 18.1 5.94C18.1 4.51 19.27 3.35 20.7 3.35ZM24.32 3.35C25.75 3.35 26.91 4.51 26.91 5.94C26.91 7.36 25.75 8.52 24.32 8.52C22.88 8.52 21.72 7.36 21.72 5.94C21.72 4.51 22.88 3.35 24.32 3.35ZM3.08 16.33L7.86 16.33L7.86 18.04L3.08 18.04L3.08 16.33ZM9.43 16.33L14.21 16.33L14.21 18.04L9.43 18.04L9.43 16.33ZM15.78 16.33L20.56 16.33L20.56 18.04L15.78 18.04L15.78 16.33ZM22.13 16.33L26.91 16.33L26.91 18.04L22.13 18.04L22.13 16.33ZM3.08 3.36L12.12 3.36L12.12 5.07L3.08 5.07L3.08 3.36ZM3.08 6.76L7.86 6.76L7.86 8.47L3.08 8.47L3.08 6.76Z" fill="#292929" fill-opacity="1.000000" fill-rule="evenodd"/>
</svg>
