<svg width="59.999817" height="59.999756" viewBox="0 0 59.9998 59.9998" fill="none" xmlns="http://www.w3.org/2000/svg" xmlns:xlink="http://www.w3.org/1999/xlink">
	<desc>
			Created with Pixso.
	</desc>
	<defs/>
	<rect id="icon-medicines" rx="-0.500000" width="58.999660" height="58.999763" transform="translate(0.500183 0.500000)" fill="#FFFFFF" fill-opacity="0"/>
	<path id="medicines" d="M44.1 0.34L59.65 15.89C60.11 16.35 60.11 17.09 59.65 17.55L55.51 21.69C55.28 21.92 54.98 22.04 54.68 22.04C54.53 22.04 54.37 22.01 54.23 21.95C54.09 21.89 53.96 21.8 53.85 21.69L48.93 16.77L44.27 21.43L51.44 28.6C51.66 28.82 51.79 29.12 51.79 29.43C51.79 29.74 51.66 30.04 51.44 30.26L46.68 35.02C46.46 35.25 46.16 35.36 45.86 35.36C45.7 35.36 45.55 35.33 45.41 35.27C45.27 35.21 45.14 35.13 45.03 35.02L43.52 33.51L24.09 52.93C23.23 53.79 22.08 54.27 20.86 54.27C19.63 54.27 18.48 53.79 17.62 52.93L16.13 51.44L13.39 54.17C13.17 54.39 12.88 54.52 12.56 54.52C12.25 54.52 11.96 54.39 11.74 54.17L9.61 52.04L2 59.65C1.77 59.88 1.47 59.99 1.17 59.99C0.87 59.99 0.57 59.88 0.34 59.65C-0.12 59.19 -0.12 58.45 0.34 57.99L7.95 50.38L5.82 48.25C5.71 48.15 5.62 48.02 5.56 47.87C5.5 47.73 5.47 47.58 5.47 47.43C5.47 47.27 5.5 47.12 5.56 46.98C5.62 46.83 5.71 46.71 5.82 46.6L8.55 43.86L7.06 42.37C5.28 40.59 5.28 37.68 7.06 35.9L26.48 16.47L24.97 14.96C24.75 14.74 24.63 14.44 24.63 14.13C24.63 13.82 24.75 13.52 24.97 13.3L29.73 8.55C30.19 8.09 30.93 8.09 31.39 8.55L38.56 15.72L43.22 11.06L38.3 6.14C38.08 5.92 37.95 5.62 37.95 5.31C37.95 5 38.08 4.7 38.3 4.48L42.44 0.34C42.9 -0.12 43.64 -0.12 44.1 0.34ZM40.78 5.31L54.68 19.21L57.17 16.72L43.27 2.82L40.78 5.31ZM45.86 32.53L48.96 29.43L30.56 11.03L27.46 14.13L45.86 32.53ZM40.22 17.38L42.61 19.77L47.27 15.11L44.87 12.72L40.22 17.38ZM30.15 26.96L24.73 21.54L22.78 23.49L32.87 33.58L38.23 28.22L28.14 18.13L26.39 19.88L31.81 25.31C32.27 25.76 32.27 26.51 31.81 26.96C31.58 27.19 31.28 27.31 30.98 27.31C30.83 27.31 30.67 27.28 30.53 27.22C30.39 27.16 30.26 27.07 30.15 26.96ZM19.28 51.27C20.15 52.14 21.56 52.14 22.44 51.27L34.84 38.87L32.87 36.89L25.25 44.52C25.02 44.74 24.72 44.86 24.42 44.86C24.12 44.86 23.82 44.74 23.59 44.52C23.13 44.06 23.13 43.32 23.59 42.86L31.21 35.24L21.12 25.15L19.22 27.06L22.1 29.94C22.56 30.4 22.56 31.14 22.1 31.6C21.87 31.83 21.57 31.94 21.27 31.94C20.97 31.94 20.67 31.83 20.44 31.6L17.56 28.71L15.63 30.64L21.05 36.06C21.51 36.52 21.51 37.26 21.05 37.72C20.82 37.95 20.52 38.06 20.22 38.06C19.92 38.06 19.62 37.95 19.39 37.72L13.97 32.3L12.04 34.23L14.93 37.11C15.39 37.57 15.39 38.31 14.93 38.77C14.7 39 14.4 39.11 14.1 39.11C13.8 39.11 13.5 39 13.27 38.77L10.39 35.89L8.72 37.55C7.85 38.43 7.85 39.84 8.72 40.71L19.28 51.27ZM34.53 35.24L36.5 37.21L41.86 31.85L39.89 29.88L34.53 35.24ZM8.3 47.43L12.56 51.69L14.47 49.78L10.21 45.52L8.3 47.43ZM22.24 46.5C22.27 46.57 22.3 46.64 22.31 46.72C22.33 46.79 22.33 46.87 22.33 46.94C22.33 47.02 22.33 47.1 22.31 47.17C22.3 47.25 22.27 47.32 22.24 47.39C22.21 47.46 22.18 47.53 22.14 47.59C22.09 47.66 22.04 47.72 21.99 47.77C21.88 47.88 21.75 47.97 21.61 48.03C21.47 48.09 21.32 48.12 21.16 48.12C21.01 48.12 20.86 48.09 20.71 48.03C20.57 47.97 20.44 47.88 20.33 47.77C20.28 47.72 20.23 47.66 20.19 47.59C20.15 47.53 20.11 47.46 20.08 47.39C20.05 47.32 20.03 47.25 20.01 47.17C20 47.1 19.99 47.02 19.99 46.94C19.99 46.87 20 46.79 20.01 46.72C20.03 46.64 20.05 46.57 20.08 46.5C20.11 46.43 20.15 46.36 20.19 46.29C20.23 46.23 20.28 46.17 20.33 46.12C20.39 46.06 20.45 46.01 20.51 45.97C20.58 45.93 20.64 45.89 20.71 45.86C20.78 45.83 20.86 45.81 20.93 45.8C21.08 45.77 21.24 45.77 21.39 45.8C21.47 45.81 21.54 45.83 21.61 45.86C21.68 45.89 21.75 45.93 21.81 45.97C21.88 46.01 21.94 46.06 21.99 46.12C22.04 46.17 22.09 46.23 22.14 46.29C22.18 46.36 22.21 46.43 22.24 46.5Z" fill="#F1CDB3" fill-opacity="1.000000" fill-rule="evenodd"/>
</svg>
