<svg width="22.000000" height="32.000000" viewBox="0 0 22 32" fill="none" xmlns="http://www.w3.org/2000/svg" xmlns:xlink="http://www.w3.org/1999/xlink">
	<desc>
			Created with Pixso.
	</desc>
	<defs/>
	<rect id="icon-marker" rx="-0.500000" width="21.000000" height="31.000000" transform="translate(0.500000 0.500000)" fill="#FFFFFF" fill-opacity="0"/>
	<path id="pin" d="M0 10.66C0 4.78 4.93 0 11 0C17.06 0 22 4.78 22 10.66C22 12.43 21.54 14.18 20.68 15.73L11.6 31.65C11.48 31.86 11.25 32 11 32C10.74 32 10.51 31.86 10.39 31.65L1.32 15.73C0.45 14.18 0 12.43 0 10.66ZM11 29.95L19.47 15.09C20.22 13.74 20.62 12.21 20.62 10.66C20.62 5.52 16.3 1.33 11 1.33C5.69 1.33 1.37 5.52 1.37 10.66C1.37 12.21 1.77 13.74 2.52 15.09L11 29.95ZM5.5 10.66C5.5 7.72 7.96 5.33 11 5.33C14.03 5.33 16.5 7.72 16.5 10.66C16.5 13.6 14.03 16 11 16C7.96 16 5.5 13.6 5.5 10.66ZM6.87 10.66C6.87 12.87 8.72 14.66 11 14.66C13.27 14.66 15.12 12.87 15.12 10.66C15.12 8.46 13.27 6.66 11 6.66C8.72 6.66 6.87 8.46 6.87 10.66Z" fill="#F1CDB3" fill-opacity="1.000000" fill-rule="evenodd"/>
</svg>
