<svg width="60.023499" height="60.000000" viewBox="0 0 60.0235 60" fill="none" xmlns="http://www.w3.org/2000/svg" xmlns:xlink="http://www.w3.org/1999/xlink">
	<desc>
			Created with Pixso.
	</desc>
	<defs/>
	<rect id="icon-transportation" rx="-0.500000" width="59.000000" height="58.999931" transform="translate(0.523499 0.500000)" fill="#FFFFFF" fill-opacity="0"/>
	<path id="transportation" d="M40.24 1.17C40.24 0.52 40.76 0 41.41 0C42.06 0 42.58 0.52 42.58 1.17L42.58 3.13C42.58 3.78 42.06 4.3 41.41 4.3C40.76 4.3 40.24 3.78 40.24 3.13L40.24 1.17ZM47.98 3.27C48.49 2.87 49.23 2.96 49.63 3.47C50.03 3.97 49.94 4.71 49.43 5.11L47.8 6.39C47.59 6.56 47.34 6.65 47.07 6.65C46.9 6.65 46.72 6.61 46.56 6.53C46.4 6.45 46.26 6.34 46.15 6.2C45.75 5.69 45.84 4.95 46.35 4.55L47.98 3.27ZM36.47 4.55L34.84 3.27C34.72 3.17 34.58 3.1 34.43 3.06C34.28 3.02 34.13 3.01 33.98 3.03C33.82 3.04 33.67 3.09 33.54 3.17C33.41 3.24 33.29 3.34 33.19 3.47C32.79 3.97 32.88 4.71 33.39 5.11L35.03 6.39C35.23 6.56 35.49 6.65 35.75 6.65C35.93 6.65 36.1 6.61 36.26 6.53C36.42 6.45 36.56 6.34 36.67 6.2C37.07 5.69 36.98 4.95 36.47 4.55ZM55.02 12.71L48 12.71L48 12.5C48 8.87 45.04 5.92 41.41 5.92C37.78 5.92 34.82 8.87 34.82 12.5L34.82 12.71L26.58 12.71C23.86 12.71 21.65 14.92 21.65 17.63L21.65 23.2L14.26 23.2C12.5 23.2 10.94 24.25 10.27 25.88C10.26 25.91 10.26 25.93 10.25 25.96L5.99 38.86C5.95 38.89 5.9 38.91 5.84 38.94C5.59 39.07 5.14 39.25 4.35 39.44C3.11 39.75 2 40.46 1.21 41.46C0.42 42.47 -0.01 43.72 0 45L0 51.09C0 53.14 1.66 54.8 3.7 54.8L8.92 54.8C9.47 57.75 12.07 60 15.18 60C18.29 60 20.89 57.75 21.44 54.8L39.87 54.8C40.42 57.75 43.01 60 46.13 60C49.24 60 51.83 57.75 52.38 54.8L55.7 54.8C58.24 54.8 59.95 53.09 59.95 50.55L59.95 20.08C59.95 13.42 56.5 12.71 55.02 12.71ZM37.17 12.5C37.17 10.16 39.07 8.26 41.41 8.26C43.75 8.26 45.66 10.16 45.66 12.5L45.66 12.71L37.17 12.71L37.17 12.5ZM55.7 52.45L52.39 52.45C52.38 52.43 52.38 52.41 52.37 52.39C52.35 52.25 52.31 52.12 52.28 51.98C52.26 51.92 52.25 51.86 52.23 51.8C52.22 51.77 52.21 51.73 52.19 51.69C52.17 51.63 52.15 51.57 52.13 51.51C52.12 51.48 52.11 51.45 52.1 51.41C52.07 51.34 52.04 51.27 52.02 51.21C52.01 51.18 52 51.16 51.99 51.14C51.95 51.05 51.91 50.96 51.87 50.87C51.86 50.86 51.86 50.85 51.85 50.84C51.81 50.76 51.77 50.68 51.73 50.61C51.72 50.58 51.7 50.56 51.69 50.53C51.66 50.47 51.62 50.41 51.59 50.36C51.57 50.32 51.55 50.29 51.53 50.26C51.48 50.18 51.42 50.1 51.37 50.02C51.31 49.93 51.25 49.86 51.2 49.78C51.16 49.73 51.12 49.68 51.08 49.63C51.06 49.61 51.04 49.58 51.01 49.55C50.97 49.5 50.93 49.45 50.89 49.4C50.87 49.38 50.84 49.35 50.82 49.33C50.77 49.27 50.71 49.21 50.66 49.16C50.65 49.15 50.63 49.13 50.62 49.12C50.55 49.05 50.48 48.98 50.41 48.92C50.4 48.9 50.38 48.89 50.36 48.88C50.31 48.83 50.25 48.78 50.19 48.73C50.17 48.71 50.14 48.69 50.11 48.67C50.06 48.63 50.01 48.59 49.96 48.55C49.93 48.53 49.9 48.5 49.87 48.48C49.75 48.39 49.62 48.3 49.48 48.22C49.45 48.2 49.42 48.18 49.38 48.16C49.33 48.12 49.28 48.09 49.23 48.06C49.19 48.05 49.16 48.03 49.13 48.01C49.07 47.98 49.01 47.95 48.95 47.92C48.92 47.91 48.9 47.89 48.87 47.88C48.79 47.84 48.71 47.81 48.63 47.77C48.62 47.77 48.61 47.76 48.6 47.76C48.51 47.72 48.42 47.68 48.32 47.65C48.3 47.64 48.27 47.63 48.24 47.62C48.18 47.6 48.11 47.57 48.04 47.55C48.01 47.54 47.97 47.53 47.94 47.52C47.88 47.5 47.82 47.49 47.76 47.47C47.72 47.46 47.68 47.45 47.64 47.44C47.54 47.42 47.44 47.39 47.34 47.37C47.29 47.36 47.23 47.35 47.17 47.34C47.13 47.34 47.09 47.33 47.04 47.32C46.98 47.31 46.92 47.31 46.86 47.3C46.82 47.3 46.78 47.29 46.74 47.29C46.67 47.28 46.6 47.28 46.54 47.27C46.5 47.27 46.47 47.27 46.44 47.26C46.33 47.26 46.23 47.26 46.12 47.26C46.02 47.26 45.92 47.26 45.81 47.26C45.78 47.27 45.75 47.27 45.71 47.27C45.65 47.28 45.58 47.28 45.51 47.29C45.47 47.29 45.43 47.3 45.39 47.3C45.33 47.31 45.27 47.31 45.21 47.32C45.16 47.33 45.12 47.34 45.08 47.34C44.98 47.36 44.88 47.38 44.78 47.4C44.73 47.41 44.67 47.43 44.61 47.44C44.57 47.45 44.53 47.46 44.49 47.47C44.43 47.49 44.37 47.5 44.31 47.52C44.28 47.53 44.24 47.54 44.21 47.55C44.14 47.57 44.07 47.6 44.01 47.62C43.98 47.63 43.95 47.64 43.93 47.65C43.83 47.68 43.74 47.72 43.65 47.76C43.64 47.76 43.62 47.77 43.61 47.78C43.53 47.81 43.46 47.84 43.38 47.88C43.35 47.89 43.32 47.91 43.29 47.92C43.24 47.95 43.18 47.98 43.12 48.01C43.09 48.03 43.06 48.05 43.02 48.07C42.97 48.1 42.92 48.12 42.87 48.15C42.75 48.23 42.63 48.3 42.52 48.38C42.47 48.41 42.43 48.44 42.38 48.48C42.35 48.5 42.32 48.53 42.28 48.55C42.24 48.59 42.19 48.62 42.14 48.66C42.11 48.68 42.08 48.71 42.06 48.73C42 48.77 41.95 48.82 41.9 48.87C41.88 48.89 41.86 48.9 41.84 48.92C41.77 48.98 41.7 49.05 41.63 49.12C41.61 49.14 41.6 49.15 41.58 49.17C41.53 49.22 41.48 49.27 41.43 49.33C41.4 49.35 41.38 49.38 41.36 49.41C41.32 49.45 41.28 49.5 41.24 49.55C41.21 49.58 41.19 49.61 41.16 49.64C41.13 49.68 41.09 49.73 41.06 49.77C40.97 49.88 40.89 50 40.82 50.11C40.78 50.16 40.75 50.21 40.72 50.26C40.7 50.29 40.68 50.32 40.66 50.36C40.63 50.41 40.6 50.46 40.57 50.52C40.55 50.55 40.53 50.58 40.52 50.61C40.48 50.68 40.44 50.75 40.41 50.82C40.4 50.83 40.39 50.85 40.38 50.87C40.34 50.96 40.3 51.05 40.26 51.14C40.25 51.17 40.24 51.19 40.23 51.22C40.2 51.28 40.18 51.35 40.15 51.41C40.14 51.45 40.13 51.48 40.12 51.52C40.09 51.58 40.08 51.63 40.06 51.69C40.04 51.73 40.03 51.77 40.02 51.81C39.99 51.91 39.97 52 39.94 52.1C39.93 52.16 39.91 52.21 39.9 52.27C39.89 52.31 39.88 52.35 39.88 52.4C39.87 52.41 39.87 52.43 39.86 52.45L21.44 52.45C21.44 52.43 21.43 52.41 21.43 52.39C21.42 52.35 21.41 52.31 21.4 52.27C21.37 52.12 21.33 51.96 21.28 51.81C21.27 51.77 21.26 51.73 21.25 51.69C21.23 51.63 21.21 51.58 21.19 51.52C21.18 51.48 21.17 51.45 21.15 51.41C21.13 51.35 21.1 51.28 21.08 51.22C21.07 51.19 21.06 51.16 21.04 51.14C21.01 51.05 20.97 50.96 20.92 50.87C20.92 50.85 20.91 50.84 20.9 50.82C20.86 50.75 20.83 50.68 20.79 50.61C20.77 50.58 20.76 50.55 20.74 50.52C20.71 50.47 20.68 50.41 20.65 50.36C20.63 50.32 20.6 50.29 20.58 50.26C20.55 50.21 20.52 50.16 20.49 50.11C20.41 50 20.33 49.88 20.25 49.77C20.21 49.73 20.18 49.68 20.14 49.64C20.12 49.61 20.09 49.58 20.07 49.55C20.03 49.5 19.99 49.46 19.95 49.41C19.93 49.38 19.9 49.35 19.88 49.33C19.83 49.28 19.78 49.22 19.73 49.17C19.71 49.15 19.69 49.14 19.68 49.12C19.61 49.05 19.54 48.98 19.47 48.92C19.45 48.9 19.43 48.88 19.41 48.87C19.36 48.82 19.3 48.77 19.25 48.73C19.22 48.71 19.19 48.68 19.16 48.66C19.12 48.62 19.07 48.59 19.02 48.55C18.99 48.53 18.96 48.5 18.93 48.48C18.88 48.44 18.83 48.41 18.79 48.38C18.71 48.32 18.62 48.27 18.54 48.22C18.51 48.2 18.47 48.18 18.44 48.15C18.39 48.12 18.34 48.1 18.29 48.07C18.25 48.05 18.22 48.03 18.18 48.01C18.13 47.98 18.07 47.95 18.01 47.92C17.98 47.91 17.95 47.89 17.92 47.88C17.85 47.84 17.78 47.81 17.7 47.78C17.69 47.77 17.67 47.76 17.65 47.76C17.56 47.72 17.47 47.68 17.38 47.65C17.35 47.64 17.32 47.63 17.3 47.62C17.23 47.6 17.17 47.57 17.1 47.55C17.07 47.54 17.03 47.53 16.99 47.52C16.93 47.5 16.87 47.49 16.81 47.47C16.78 47.46 16.74 47.45 16.7 47.44C16.54 47.4 16.38 47.37 16.22 47.34C16.18 47.34 16.14 47.33 16.1 47.32C16.04 47.32 15.98 47.31 15.92 47.3C15.88 47.3 15.84 47.29 15.8 47.29C15.73 47.28 15.66 47.28 15.59 47.27C15.56 47.27 15.52 47.27 15.49 47.26C15.39 47.26 15.28 47.26 15.18 47.26C15.08 47.26 14.97 47.26 14.87 47.26C14.84 47.27 14.8 47.27 14.77 47.27C14.7 47.28 14.63 47.28 14.56 47.29C14.53 47.29 14.49 47.3 14.45 47.3C14.38 47.31 14.32 47.32 14.26 47.32C14.22 47.33 14.18 47.34 14.14 47.34C14.04 47.36 13.94 47.38 13.84 47.4C13.78 47.41 13.72 47.43 13.67 47.44C13.63 47.45 13.59 47.46 13.55 47.47C13.49 47.49 13.43 47.5 13.37 47.52C13.33 47.53 13.3 47.54 13.26 47.55C13.2 47.57 13.13 47.6 13.07 47.62C13.04 47.63 13.01 47.64 12.98 47.65C12.89 47.68 12.8 47.72 12.71 47.76C12.69 47.76 12.67 47.77 12.66 47.78C12.58 47.81 12.51 47.84 12.44 47.88C12.41 47.89 12.38 47.91 12.34 47.93C12.29 47.95 12.24 47.98 12.18 48.01C12.15 48.03 12.11 48.05 12.08 48.07C12.03 48.1 11.98 48.12 11.93 48.15C11.84 48.2 11.76 48.26 11.68 48.31C11.64 48.33 11.61 48.36 11.58 48.38C11.53 48.41 11.48 48.44 11.44 48.48C11.41 48.5 11.37 48.53 11.34 48.55C11.29 48.59 11.25 48.62 11.2 48.66C11.17 48.68 11.14 48.71 11.11 48.73C11.06 48.77 11.01 48.82 10.96 48.86C10.94 48.88 10.92 48.9 10.89 48.92C10.82 48.98 10.75 49.05 10.69 49.12C10.67 49.14 10.65 49.16 10.63 49.18C10.58 49.23 10.53 49.28 10.49 49.33C10.46 49.36 10.44 49.38 10.41 49.41C10.37 49.46 10.33 49.5 10.3 49.54C10.27 49.58 10.24 49.61 10.22 49.64C10.18 49.68 10.15 49.73 10.12 49.77C10.06 49.85 10 49.93 9.94 50.01C9.92 50.04 9.9 50.08 9.87 50.11C9.84 50.16 9.81 50.21 9.78 50.25C9.76 50.29 9.74 50.32 9.72 50.36C9.69 50.41 9.66 50.46 9.63 50.51C9.61 50.55 9.59 50.58 9.57 50.61C9.54 50.68 9.5 50.74 9.47 50.8C9.46 50.83 9.45 50.85 9.44 50.87C9.4 50.96 9.36 51.05 9.32 51.14C9.31 51.17 9.29 51.2 9.28 51.23C9.26 51.29 9.23 51.35 9.21 51.41C9.2 51.45 9.18 51.49 9.17 51.52C9.15 51.58 9.13 51.63 9.11 51.69C9.1 51.73 9.09 51.77 9.08 51.81C9.06 51.87 9.04 51.92 9.03 51.98C9 52.07 8.98 52.17 8.96 52.27C8.95 52.31 8.94 52.35 8.93 52.4C8.93 52.41 8.92 52.43 8.92 52.45L3.7 52.45C2.95 52.45 2.34 51.84 2.34 51.09L2.34 45C2.34 44.24 2.59 43.51 3.06 42.91C3.52 42.32 4.18 41.9 4.91 41.72C5.58 41.56 6.15 41.37 6.62 41.17L49.18 41.17C49.83 41.17 50.35 40.64 50.35 39.99C50.35 39.35 49.83 38.82 49.18 38.82L23.99 38.82L23.99 17.63C23.99 16.21 25.15 15.05 26.58 15.05L55.02 15.05C57.27 15.05 57.6 18.2 57.6 20.08L57.6 50.55C57.6 52.21 56.41 52.45 55.7 52.45ZM47.93 21.66C49.38 21.98 50.46 23.27 50.46 24.81C50.46 26.11 49.68 27.24 48.57 27.75C49.35 28.72 49.81 29.94 49.81 31.24C49.81 34.3 47.32 36.79 44.26 36.79C43.26 36.79 42.27 36.52 41.41 36C40.56 36.51 39.57 36.79 38.56 36.79C35.5 36.79 33.01 34.3 33.01 31.24C33.01 29.94 33.47 28.72 34.25 27.75C33.14 27.24 32.37 26.11 32.37 24.81C32.37 23.27 33.45 21.98 34.89 21.66C34.88 21.57 34.88 21.49 34.87 21.4C34.86 20.44 35.22 19.54 35.9 18.84C36.58 18.15 37.53 17.75 38.5 17.75C39.69 17.75 40.75 18.33 41.41 19.22C42.08 18.33 43.13 17.75 44.32 17.75C45.31 17.75 46.26 18.15 46.95 18.86C47.62 19.55 47.98 20.46 47.95 21.41C47.95 21.49 47.94 21.58 47.93 21.66ZM38 20.2C37.83 20.26 37.69 20.36 37.57 20.49C37.34 20.72 37.21 21.03 37.22 21.36C37.23 22.07 37.82 22.65 38.52 22.66C38.69 22.67 38.85 22.63 39 22.57C39.04 22.55 39.08 22.53 39.12 22.52C39.22 22.46 39.31 22.39 39.4 22.31C39.52 22.19 39.62 22.04 39.69 21.88C39.75 21.72 39.79 21.55 39.79 21.38C39.78 20.67 39.21 20.09 38.5 20.09C38.33 20.09 38.16 20.13 38 20.2ZM45.27 20.49C45.02 20.24 44.68 20.09 44.32 20.09C43.62 20.09 43.04 20.67 43.04 21.38C43.04 21.73 43.17 22.06 43.42 22.3C43.5 22.39 43.6 22.46 43.71 22.52C43.73 22.53 43.75 22.54 43.77 22.55C43.94 22.62 44.12 22.66 44.31 22.66C45 22.66 45.59 22.06 45.61 21.35C45.62 21.03 45.49 20.73 45.27 20.49ZM35.6 23.92C35.11 23.92 34.71 24.32 34.71 24.81C34.71 25.3 35.11 25.7 35.6 25.7C35.92 25.7 36.2 25.53 36.36 25.28C36.38 25.22 36.41 25.16 36.44 25.1C36.47 25.01 36.49 24.91 36.49 24.81C36.49 24.32 36.09 23.92 35.6 23.92ZM46.47 25.28C46.62 25.53 46.9 25.7 47.22 25.7C47.71 25.7 48.11 25.3 48.11 24.81C48.11 24.32 47.71 23.92 47.22 23.92C46.73 23.92 46.33 24.32 46.33 24.81C46.33 24.91 46.35 25 46.38 25.1C46.41 25.16 46.44 25.22 46.47 25.28ZM42.17 33.67C42.76 34.17 43.5 34.44 44.26 34.44C46.03 34.44 47.47 33.01 47.47 31.24C47.47 29.9 46.62 28.69 45.36 28.23C45.16 28.15 44.98 28.02 44.84 27.84C44.71 27.67 44.62 27.46 44.6 27.24C44.57 26.92 44.49 26.61 44.36 26.31C44.32 26.23 44.28 26.15 44.24 26.07C43.93 25.48 43.45 25 42.85 24.71C42.8 24.68 42.75 24.66 42.7 24.64C42.31 24.46 41.87 24.37 41.41 24.37C40.97 24.37 40.53 24.46 40.12 24.64C40.07 24.66 40.02 24.69 39.97 24.71C39.38 25.01 38.89 25.48 38.58 26.07C38.54 26.15 38.5 26.23 38.46 26.31C38.34 26.61 38.25 26.92 38.22 27.24C38.2 27.46 38.12 27.67 37.98 27.84C37.85 28.02 37.67 28.15 37.46 28.23C36.2 28.69 35.36 29.9 35.36 31.24C35.36 33.01 36.8 34.44 38.56 34.44C39.33 34.44 40.07 34.17 40.65 33.67C40.86 33.49 41.13 33.39 41.41 33.39C41.69 33.39 41.96 33.49 42.17 33.67ZM12.46 26.73C12.61 26.38 12.86 26.08 13.18 25.86C13.5 25.65 13.88 25.54 14.26 25.54L21.65 25.54L21.65 38.82L8.47 38.82L12.46 26.73ZM55.04 39.77C55.02 39.7 55 39.62 54.97 39.55C54.94 39.48 54.91 39.41 54.86 39.35C54.82 39.28 54.77 39.23 54.72 39.17C54.66 39.12 54.6 39.07 54.54 39.03C54.41 38.94 54.27 38.88 54.12 38.85C53.97 38.82 53.81 38.82 53.66 38.85C53.59 38.87 53.51 38.89 53.44 38.92C53.37 38.95 53.3 38.98 53.24 39.03C53.17 39.07 53.11 39.12 53.06 39.17C53.01 39.22 52.96 39.28 52.91 39.35C52.87 39.41 52.84 39.48 52.81 39.55C52.78 39.62 52.76 39.7 52.74 39.77C52.73 39.85 52.72 39.92 52.72 40C52.72 40.08 52.73 40.15 52.74 40.23C52.76 40.3 52.78 40.38 52.81 40.45C52.84 40.52 52.87 40.59 52.92 40.65C52.96 40.71 53.01 40.77 53.06 40.83C53.11 40.88 53.17 40.93 53.24 40.97C53.3 41.02 53.37 41.05 53.44 41.08C53.51 41.11 53.59 41.13 53.66 41.15C53.74 41.16 53.81 41.17 53.89 41.17C53.97 41.17 54.04 41.16 54.12 41.15C54.19 41.13 54.27 41.11 54.34 41.08C54.41 41.05 54.48 41.02 54.54 40.97C54.6 40.93 54.66 40.88 54.72 40.83C54.77 40.77 54.82 40.71 54.86 40.65C54.91 40.59 54.94 40.52 54.97 40.45C55 40.38 55.02 40.3 55.04 40.23C55.05 40.15 55.06 40.08 55.06 40C55.06 39.92 55.05 39.85 55.04 39.77ZM15.18 57.65C12.96 57.65 11.16 55.85 11.16 53.63C11.16 53.6 11.16 53.57 11.16 53.54C11.16 53.5 11.16 53.46 11.16 53.42C11.16 53.41 11.16 53.41 11.16 53.4C11.28 51.28 13.04 49.6 15.18 49.6C17.12 49.6 18.74 50.98 19.12 52.81L19.13 52.82C19.14 52.88 19.15 52.94 19.16 53L19.16 53.01C19.17 53.06 19.17 53.11 19.18 53.15C19.18 53.17 19.18 53.19 19.19 53.21C19.19 53.25 19.19 53.29 19.19 53.32C19.2 53.36 19.2 53.39 19.2 53.42C19.2 53.45 19.2 53.48 19.2 53.52C19.21 53.55 19.21 53.59 19.21 53.63C19.21 55.85 17.4 57.65 15.18 57.65ZM46.13 57.65C43.91 57.65 42.1 55.85 42.1 53.63C42.1 53.57 42.1 53.52 42.1 53.47C42.1 53.45 42.1 53.44 42.1 53.42C42.11 53.38 42.11 53.34 42.11 53.3C42.12 53.27 42.12 53.24 42.12 53.21C42.12 53.2 42.12 53.19 42.13 53.18C42.14 53.06 42.16 52.93 42.18 52.82C42.18 52.81 42.18 52.81 42.18 52.8C42.56 50.98 44.19 49.6 46.13 49.6C46.68 49.6 47.21 49.71 47.69 49.92C49.13 50.53 50.15 51.96 50.15 53.63C50.15 55.85 48.34 57.65 46.13 57.65Z" fill="#F1CDB3" fill-opacity="1.000000" fill-rule="evenodd"/>
</svg>
