<svg width="40.000000" height="32.000000" viewBox="0 0 40 32" fill="none" xmlns="http://www.w3.org/2000/svg" xmlns:xlink="http://www.w3.org/1999/xlink">
	<desc>
			Created with Pixso.
	</desc>
	<defs/>
	<rect id="icon-phone" rx="-0.500000" width="38.999996" height="31.000000" transform="translate(0.500000 0.500000)" fill="#FFFFFF" fill-opacity="0"/>
	<path id="phone" d="M37.51 2.9L39.94 8.89C40.01 9.06 40.01 9.24 39.95 9.41L38.98 12.2C38.92 12.37 38.81 12.5 38.66 12.59C38.52 12.67 38.35 12.7 38.18 12.67L28.93 10.77C28.79 10.74 28.66 10.67 28.56 10.57C28.46 10.46 28.4 10.33 28.37 10.18L27.57 5.32C23.16 4.18 16.83 4.18 12.42 5.32L11.62 10.18C11.59 10.33 11.53 10.46 11.43 10.57C11.33 10.67 11.2 10.74 11.06 10.77L1.81 12.67C1.64 12.7 1.47 12.67 1.32 12.59C1.18 12.5 1.07 12.37 1.01 12.2L0.04 9.41C-0.02 9.24 -0.02 9.06 0.05 8.89L2.48 2.9C2.53 2.8 2.59 2.71 2.67 2.63C2.75 2.56 2.85 2.51 2.96 2.48L5.88 1.7C14.46 -0.57 25.53 -0.57 34.11 1.7L37.03 2.48C37.14 2.51 37.24 2.56 37.32 2.63C37.4 2.71 37.46 2.8 37.51 2.9ZM11.28 4.26C11.37 4.16 11.49 4.09 11.62 4.05C16.39 2.7 23.6 2.7 28.37 4.05C28.5 4.09 28.62 4.16 28.71 4.26C28.8 4.36 28.86 4.49 28.88 4.62L29.15 6.26L38.14 8.18L36.34 3.78L33.75 3.09C25.4 0.87 14.59 0.87 6.24 3.09L3.65 3.78L1.85 8.18L10.84 6.26L11.11 4.62C11.13 4.49 11.19 4.36 11.28 4.26ZM33.09 12.76C33.19 12.86 33.26 12.98 33.29 13.11L36.53 28.08C36.54 28.13 36.54 28.19 36.54 28.24L36.54 31.28C36.54 31.47 36.47 31.65 36.34 31.78C36.21 31.92 36.03 32 35.84 32L4.15 32C3.96 32 3.78 31.92 3.65 31.78C3.52 31.65 3.45 31.47 3.45 31.28L3.45 28.24C3.45 28.19 3.45 28.13 3.46 28.08L6.7 13.11C6.73 12.98 6.8 12.86 6.9 12.76C6.99 12.66 7.11 12.6 7.24 12.57L12.02 11.52L12.62 7.51C12.64 7.34 12.73 7.18 12.86 7.07C12.98 6.96 13.14 6.9 13.31 6.9L15.18 6.9L15.18 5.96C15.18 5.56 15.49 5.24 15.88 5.24C16.27 5.24 16.58 5.56 16.58 5.96L16.58 6.9L23.41 6.9L23.41 5.96C23.41 5.56 23.72 5.24 24.11 5.24C24.5 5.24 24.81 5.56 24.81 5.96L24.81 6.9L26.68 6.9C26.85 6.9 27.01 6.96 27.14 7.07C27.26 7.18 27.35 7.34 27.37 7.51L27.97 11.52L32.75 12.57C32.88 12.6 33 12.66 33.09 12.76ZM1.63 9.7L2.13 11.14L10.32 9.46L10.59 7.78L1.63 9.7ZM29.67 9.46L37.86 11.14L38.36 9.7L29.4 7.78L29.67 9.46ZM12.78 12.82L7.98 13.88L5.02 27.52L34.97 27.52L32.01 13.88L27.21 12.82C27.07 12.79 26.94 12.72 26.84 12.61C26.75 12.51 26.68 12.37 26.66 12.23L26.08 8.34L13.91 8.34L13.33 12.23C13.31 12.37 13.24 12.51 13.15 12.61C13.05 12.72 12.92 12.79 12.78 12.82ZM20 26.16C24.14 26.16 27.52 22.7 27.52 18.45C27.52 14.19 24.14 10.73 20 10.73C15.85 10.73 12.47 14.19 12.47 18.45C12.47 22.7 15.85 26.16 20 26.16ZM20 12.17C23.37 12.17 26.12 14.99 26.12 18.45C26.12 21.9 23.37 24.72 20 24.72C16.62 24.72 13.87 21.9 13.87 18.45C13.87 14.99 16.62 12.17 20 12.17ZM22.66 18.44C22.66 19.95 21.47 21.18 20 21.18C18.52 21.18 17.33 19.95 17.33 18.44C17.33 16.94 18.52 15.71 20 15.71C21.47 15.71 22.66 16.94 22.66 18.44ZM21.26 18.44C21.26 17.73 20.69 17.15 20 17.15C19.3 17.15 18.73 17.73 18.73 18.44C18.73 19.16 19.3 19.74 20 19.74C20.69 19.74 21.26 19.16 21.26 18.44ZM9.11 28.96L4.85 28.96L4.85 30.56L8.2 30.56L9.11 28.96ZM10.89 30.56L11.79 28.96L10.73 28.96L9.82 30.56L10.89 30.56ZM28.67 28.96L13.41 28.96L12.51 30.56L27.76 30.56L28.67 28.96ZM30.29 28.96L29.38 30.56L35.14 30.56L35.14 28.96L30.29 28.96Z" fill="#F1CDB3" fill-opacity="1.000000" fill-rule="evenodd"/>
</svg>
