<svg width="60.000000" height="60.000000" viewBox="0 0 60 60" fill="none" xmlns="http://www.w3.org/2000/svg" xmlns:xlink="http://www.w3.org/1999/xlink">
	<desc>
			Created with Pixso.
	</desc>
	<defs/>
	<rect id="icon-collars-leashes" rx="-0.500000" width="58.999996" height="59.000000" transform="translate(0.500000 0.500000)" fill="#FFFFFF" fill-opacity="0"/>
	<path id="collars-or-leashes" d="M50.76 6.93C53.53 7.88 55.73 8.99 57.29 10.25C59.09 11.69 59.99 13.28 60 14.98L60 28.09C60 29.79 59.09 31.38 57.29 32.83C55.73 34.08 53.53 35.2 50.76 36.14C45.47 37.94 38.55 38.97 31.17 39.07L31.17 43.77L35.21 43.77C35.66 41.41 37.74 39.61 40.23 39.61C43.05 39.61 45.35 41.9 45.35 44.72C45.35 45.93 44.92 47.1 44.14 48.02C44.91 48.93 45.35 50.09 45.35 51.32C45.35 54.14 43.05 56.43 40.23 56.43C37.74 56.43 35.66 54.63 35.21 52.27L24.78 52.27C24.33 54.63 22.25 56.43 19.76 56.43C16.94 56.43 14.64 54.14 14.64 51.32C14.64 50.11 15.07 48.94 15.85 48.02C15.08 47.11 14.64 45.95 14.64 44.72C14.64 41.9 16.94 39.61 19.76 39.61C22.25 39.61 24.33 41.4 24.78 43.77L28.82 43.77L28.82 39.07C21.44 38.97 14.52 37.94 9.23 36.14C6.46 35.2 4.26 34.08 2.7 32.83C0.9 31.38 0 29.79 0 28.09L0 14.98C0 13.28 0.9 11.69 2.7 10.25C4.26 8.99 6.46 7.88 9.23 6.93C14.8 5.04 22.17 4 29.99 4C37.82 4 45.19 5.04 50.76 6.93ZM57.62 15.35C57.63 15.29 57.64 15.22 57.64 15.15C57.65 15.09 57.65 15.04 57.65 14.98C57.65 10.89 46.29 6.34 29.99 6.34C13.7 6.34 2.34 10.89 2.34 14.98C2.34 15.04 2.34 15.09 2.35 15.15C2.35 15.22 2.36 15.29 2.37 15.35L2.37 15.36C2.38 15.42 2.39 15.48 2.41 15.54C2.42 15.6 2.44 15.67 2.46 15.73C2.47 15.74 2.47 15.75 2.47 15.76C2.49 15.81 2.51 15.86 2.53 15.91C2.54 15.93 2.55 15.96 2.56 15.98C2.57 16.01 2.59 16.04 2.6 16.06C2.63 16.12 2.66 16.18 2.69 16.23L2.69 16.25C3.18 17.13 4.1 17.9 5.02 18.5C6.23 17.8 8.18 16.91 11.16 16.07C16.41 14.6 23.1 13.79 30 13.79C36.89 13.79 43.58 14.6 48.83 16.07C51.81 16.91 53.76 17.8 54.97 18.5C55.89 17.9 56.81 17.13 57.3 16.25L57.3 16.23C57.33 16.18 57.36 16.12 57.39 16.06C57.4 16.04 57.42 16.01 57.43 15.98C57.46 15.91 57.49 15.83 57.52 15.76L57.53 15.73C57.54 15.68 57.56 15.63 57.57 15.58C57.59 15.51 57.6 15.44 57.62 15.36L57.62 15.35ZM43.48 9.86C39.44 9.1 34.84 8.69 30.19 8.69C23.74 8.69 17.51 9.46 12.65 10.85C12.02 11.03 11.66 11.67 11.84 12.3C11.99 12.81 12.46 13.15 12.97 13.15C13.07 13.15 13.18 13.13 13.29 13.1C17.95 11.77 23.96 11.04 30.19 11.04C34.7 11.04 39.15 11.43 43.04 12.16C43.68 12.28 44.29 11.86 44.41 11.22C44.53 10.59 44.11 9.98 43.48 9.86ZM47.85 11.04C48.01 11.2 48.13 11.41 48.17 11.64C48.19 11.71 48.2 11.79 48.2 11.87C48.2 11.94 48.19 12.02 48.17 12.1C48.14 12.25 48.08 12.39 48 12.52C47.95 12.58 47.91 12.64 47.85 12.7C47.8 12.75 47.74 12.8 47.67 12.84C47.61 12.88 47.54 12.92 47.47 12.95C47.4 12.98 47.33 13 47.25 13.02C47.18 13.03 47.1 13.04 47.02 13.04C46.95 13.04 46.87 13.03 46.79 13.02C46.72 13 46.65 12.98 46.57 12.95C46.5 12.92 46.44 12.88 46.37 12.84C46.31 12.8 46.25 12.75 46.19 12.7C46.14 12.64 46.09 12.58 46.05 12.52C45.96 12.39 45.9 12.25 45.87 12.1C45.86 12.02 45.85 11.94 45.85 11.87C45.85 11.79 45.86 11.71 45.87 11.64C45.9 11.49 45.96 11.34 46.05 11.22C46.09 11.15 46.14 11.09 46.19 11.04C46.25 10.98 46.31 10.94 46.37 10.89C46.44 10.85 46.5 10.81 46.57 10.79C46.65 10.76 46.72 10.73 46.79 10.72C46.94 10.69 47.1 10.69 47.25 10.72C47.4 10.75 47.55 10.81 47.67 10.89C47.74 10.94 47.8 10.98 47.85 11.04ZM11.8 18.33C9.94 18.85 8.55 19.38 7.52 19.85C12.37 22.01 20.31 23.62 29.99 23.62C39.68 23.62 47.62 22.01 52.47 19.85C51.44 19.38 50.05 18.85 48.19 18.33C43.15 16.91 36.69 16.13 29.99 16.13C23.3 16.13 16.84 16.91 11.8 18.33ZM34.39 36.62C48.3 35.89 57.65 31.8 57.65 28.09L57.65 19.41L57.64 19.42C57.52 19.52 57.41 19.62 57.29 19.71C57.14 19.84 56.98 19.96 56.81 20.07L56.81 20.08C56.72 20.14 56.63 20.2 56.54 20.27L56.5 20.29C56.42 20.35 56.33 20.41 56.24 20.47L56.19 20.5C56.1 20.56 56.01 20.62 55.92 20.68L55.88 20.7C54.49 21.56 52.78 22.34 50.76 23.03C45.19 24.92 37.82 25.96 29.99 25.96C22.17 25.96 14.8 24.92 9.23 23.03C7.21 22.34 5.5 21.56 4.11 20.7L4.07 20.68C3.98 20.62 3.89 20.56 3.8 20.5C3.78 20.49 3.76 20.48 3.75 20.47C3.66 20.41 3.57 20.35 3.49 20.29L3.45 20.27C3.36 20.2 3.27 20.14 3.18 20.08L3.18 20.07C3.01 19.96 2.85 19.84 2.7 19.71C2.58 19.62 2.47 19.52 2.35 19.42L2.34 19.41L2.34 28.09C2.34 31.8 11.69 35.89 25.6 36.62C25.09 35.81 24.83 34.87 24.83 33.91C24.83 33.56 24.86 33.2 24.94 32.86C21.97 32.68 19.14 32.34 16.51 31.84C15.88 31.72 15.46 31.11 15.58 30.48C15.7 29.84 16.31 29.42 16.95 29.54C19.77 30.07 22.83 30.42 26.06 30.57C27.01 29.45 28.42 28.74 29.99 28.74C31.56 28.74 32.97 29.45 33.92 30.55C38.67 30.3 43.08 29.63 46.7 28.6C47.32 28.42 47.97 28.78 48.15 29.4C48.33 30.03 47.97 30.67 47.34 30.85C43.82 31.86 39.6 32.54 35.05 32.83C35.12 33.18 35.16 33.54 35.16 33.91C35.16 34.87 34.9 35.81 34.39 36.62ZM14.05 29.38C14.08 29.46 14.1 29.53 14.12 29.6C14.13 29.68 14.14 29.76 14.14 29.83C14.14 29.99 14.11 30.14 14.05 30.28C13.99 30.42 13.9 30.55 13.79 30.66C13.74 30.72 13.68 30.76 13.62 30.81C13.55 30.85 13.49 30.89 13.42 30.91C13.34 30.94 13.27 30.97 13.2 30.98C13.12 31 13.04 31 12.97 31C12.89 31 12.81 31 12.74 30.98C12.66 30.97 12.59 30.94 12.52 30.91C12.45 30.89 12.38 30.85 12.32 30.81C12.25 30.76 12.19 30.72 12.14 30.66C12.08 30.61 12.03 30.55 11.99 30.48C11.95 30.42 11.91 30.35 11.88 30.28C11.83 30.14 11.8 29.99 11.79 29.83C11.79 29.76 11.8 29.68 11.82 29.6C11.83 29.53 11.86 29.46 11.88 29.38C11.91 29.31 11.95 29.25 11.99 29.18C12.03 29.12 12.08 29.06 12.14 29C12.19 28.95 12.25 28.9 12.32 28.86C12.38 28.82 12.45 28.78 12.52 28.75C12.59 28.72 12.66 28.7 12.74 28.68C12.89 28.65 13.04 28.65 13.2 28.68C13.27 28.7 13.34 28.72 13.42 28.75C13.49 28.78 13.55 28.82 13.62 28.86C13.68 28.9 13.74 28.95 13.79 29C13.85 29.06 13.9 29.12 13.94 29.18C13.98 29.25 14.02 29.31 14.05 29.38ZM27.17 33.91C27.17 35.47 28.44 36.73 29.99 36.73C31.55 36.73 32.82 35.47 32.82 33.91C32.82 32.35 31.55 31.09 29.99 31.09C28.44 31.09 27.17 32.35 27.17 33.91ZM36.76 46.02C36.61 46.08 36.46 46.11 36.3 46.11L23.69 46.11C23.53 46.11 23.38 46.08 23.23 46.02C23.08 45.96 22.95 45.86 22.84 45.75C22.73 45.63 22.65 45.5 22.59 45.35C22.54 45.2 22.51 45.04 22.52 44.88C22.53 44.83 22.53 44.78 22.53 44.72C22.53 43.2 21.28 41.95 19.76 41.95C18.23 41.95 16.99 43.2 16.99 44.72C16.99 45.66 17.46 46.53 18.24 47.04C18.4 47.15 18.54 47.29 18.63 47.46C18.72 47.63 18.77 47.83 18.77 48.02C18.77 48.21 18.72 48.41 18.63 48.58C18.54 48.75 18.4 48.89 18.24 49C17.46 49.51 16.99 50.38 16.99 51.32C16.99 52.84 18.23 54.09 19.76 54.09C21.28 54.09 22.53 52.84 22.53 51.32C22.53 51.26 22.53 51.21 22.52 51.16C22.51 51 22.54 50.84 22.59 50.69C22.65 50.54 22.73 50.41 22.84 50.29C22.95 50.18 23.08 50.08 23.23 50.02C23.38 49.96 23.53 49.93 23.69 49.93L36.3 49.93C36.46 49.93 36.61 49.96 36.76 50.02C36.91 50.08 37.04 50.18 37.15 50.29C37.26 50.41 37.34 50.54 37.4 50.69C37.45 50.84 37.48 51 37.47 51.16C37.46 51.21 37.46 51.26 37.46 51.32C37.46 52.84 38.71 54.09 40.23 54.09C41.76 54.09 43 52.84 43 51.32C43 50.38 42.53 49.51 41.75 49C41.59 48.89 41.45 48.75 41.36 48.58C41.27 48.41 41.22 48.21 41.22 48.02C41.22 47.83 41.27 47.63 41.36 47.46C41.45 47.29 41.59 47.15 41.75 47.04C42.53 46.53 43 45.66 43 44.72C43 43.2 41.76 41.95 40.23 41.95C38.71 41.95 37.46 43.2 37.46 44.72C37.46 44.78 37.46 44.83 37.47 44.88C37.48 45.04 37.45 45.2 37.4 45.35C37.34 45.5 37.26 45.63 37.15 45.75C37.04 45.86 36.91 45.96 36.76 46.02Z" fill="#F1CDB3" fill-opacity="1.000000" fill-rule="evenodd"/>
</svg>
