<svg width="60.000000" height="60.000000" viewBox="0 0 60 60" fill="none" xmlns="http://www.w3.org/2000/svg" xmlns:xlink="http://www.w3.org/1999/xlink">
	<desc>
			Created with Pixso.
	</desc>
	<defs/>
	<rect id="icon-toys" rx="-0.500000" width="59.000000" height="59.000000" transform="translate(0.500000 0.500000)" fill="#FFFFFF" fill-opacity="0"/>
	<path id="toys" d="M30 0C38.01 0 45.54 3.12 51.21 8.78C56.87 14.45 60 21.98 60 30C60 38.01 56.87 45.54 51.21 51.21C45.54 56.87 38.01 60 30 60C21.98 60 14.45 56.87 8.78 51.21C3.12 45.54 0 38.01 0 30C0 21.98 3.12 14.45 8.78 8.78C14.45 3.12 21.98 0 30 0ZM53.74 33.69C54.88 33.86 56 33.95 57.1 33.96C57.23 33.1 57.31 32.22 57.35 31.35C57.34 31.35 57.32 31.35 57.3 31.35C56.27 31.35 55.21 31.27 54.13 31.11C53.42 31.01 52.92 30.34 53.03 29.63C53.13 28.92 53.8 28.43 54.51 28.53C55.48 28.68 56.43 28.75 57.36 28.74C57.05 21.9 54.24 15.5 49.36 10.63C44.34 5.6 37.84 2.94 31.25 2.65C31.24 3.57 31.32 4.51 31.46 5.48C32.25 10.78 35.1 16.12 39.48 20.51C39.99 21.02 39.99 21.84 39.48 22.35C38.97 22.86 38.15 22.86 37.64 22.35C32.86 17.57 29.75 11.72 28.88 5.86C28.72 4.77 28.64 3.7 28.64 2.65C27.77 2.69 26.89 2.78 26.03 2.9C26.04 4 26.13 5.12 26.3 6.25C27.25 12.65 30.62 19.02 35.79 24.2C40.97 29.37 47.34 32.74 53.74 33.69ZM35.92 56.73C40.85 55.65 45.54 53.19 49.36 49.36C52.96 45.77 55.43 41.35 56.6 36.54L56.59 36.56C55.51 36.53 54.43 36.43 53.36 36.27C46.41 35.24 39.52 31.61 33.95 26.04C28.38 20.47 24.75 13.58 23.72 6.63C23.56 5.56 23.46 4.49 23.43 3.41C18.73 4.56 14.29 6.97 10.63 10.63C6.88 14.37 4.35 19.02 3.24 24.08L3.25 24.07C4.17 24.11 5.09 24.2 6.01 24.34C12.96 25.37 19.85 29.01 25.42 34.57C30.98 40.14 34.62 47.03 35.65 53.98C35.79 54.89 35.88 55.81 35.92 56.73ZM45.22 26.15C45.47 25.91 45.8 25.77 46.15 25.77C46.49 25.77 46.82 25.91 47.07 26.15C47.31 26.39 47.45 26.73 47.45 27.07C47.45 27.42 47.31 27.75 47.07 28C46.83 28.24 46.49 28.38 46.15 28.38C45.8 28.38 45.47 28.24 45.22 28C44.98 27.75 44.84 27.42 44.84 27.07C44.84 26.73 44.98 26.4 45.22 26.15ZM30.49 54.75C30.62 55.62 30.7 56.49 30.72 57.36C31.59 57.34 32.46 57.28 33.33 57.17C33.29 56.23 33.21 55.3 33.07 54.37C32.12 47.96 28.75 41.59 23.57 36.42C18.4 31.24 12.03 27.87 5.62 26.92C4.68 26.78 3.73 26.69 2.8 26.66C2.7 27.52 2.64 28.39 2.61 29.27C3.49 29.29 4.37 29.37 5.24 29.5C11.09 30.37 16.95 33.48 21.73 38.26C26.51 43.04 29.62 48.9 30.49 54.75ZM2.67 31.88C3.11 38.49 5.9 44.64 10.63 49.36C15.49 54.22 21.74 56.87 28.11 57.31C28.08 56.58 28.02 55.85 27.91 55.13C27.12 49.83 24.27 44.49 19.88 40.11C15.5 35.72 10.16 32.87 4.86 32.08C4.12 31.97 3.39 31.9 2.67 31.88Z" fill="#F1CDB3" fill-opacity="1.000000" fill-rule="evenodd"/>
</svg>
