<svg width="60.000000" height="60.000000" viewBox="0 0 60 60" fill="none" xmlns="http://www.w3.org/2000/svg" xmlns:xlink="http://www.w3.org/1999/xlink">
	<desc>
			Created with Pixso.
	</desc>
	<defs/>
	<rect id="icon-vitamins" rx="-0.500000" width="59.000000" height="59.000000" transform="translate(0.500000 0.500000)" fill="#FFFFFF" fill-opacity="0"/>
	<path id="vitamins" d="M42.11 33.67C46.7 33.67 51.03 34.28 54.31 35.39C59.01 36.99 60 39.07 60 40.52L60 50.29C60 51.75 59.01 53.83 54.31 55.43C51.03 56.54 46.7 57.15 42.11 57.15C37.52 57.15 33.19 56.54 29.92 55.43C27.14 54.48 25.66 53.37 24.91 52.32C23.88 53.49 22.67 54.49 21.31 55.27C19.17 56.5 16.72 57.15 14.23 57.15C6.38 57.15 0 50.77 0 42.92L0 17.23C0 9.38 6.38 3 14.23 3C22.08 3 28.46 9.38 28.46 17.23L28.46 35.95C28.94 35.75 29.42 35.56 29.92 35.39C32.99 34.35 36.98 33.74 41.25 33.67C41.54 33.67 41.82 33.67 42.11 33.67ZM7.03 28.9L26.12 28.9L26.12 17.23C26.12 10.67 20.78 5.34 14.23 5.34C7.67 5.34 2.34 10.67 2.34 17.23L2.34 28.9L4.68 28.9L4.68 17.23C4.68 11.96 8.96 7.68 14.23 7.68C19.49 7.68 23.77 11.96 23.77 17.23C23.77 17.87 23.25 18.4 22.6 18.4C21.95 18.4 21.43 17.87 21.43 17.23C21.43 13.26 18.2 10.03 14.23 10.03C10.26 10.03 7.03 13.26 7.03 17.23L7.03 28.9ZM24.45 39.33C24.71 38.68 25.21 37.98 26.12 37.29L26.12 31.25L7.03 31.25L7.03 37.57C7.03 38.22 6.5 38.75 5.85 38.75C5.21 38.75 4.68 38.22 4.68 37.57L4.68 31.25L2.34 31.25L2.34 42.92C2.34 49.48 7.67 54.81 14.23 54.81C18.31 54.81 22.02 52.78 24.23 49.36L24.23 40.52C24.23 40.47 24.23 40.42 24.23 40.36L24.23 40.33C24.24 40.23 24.25 40.12 24.27 40.01C24.31 39.78 24.37 39.55 24.45 39.33ZM26.58 40.39C26.57 40.44 26.57 40.48 26.57 40.52L26.57 40.53C26.57 40.9 26.88 41.42 27.63 41.97L52.71 37.35C49.79 36.48 46.06 36.01 42.11 36.01C37.77 36.01 33.71 36.58 30.67 37.61C29.47 38.02 28.58 38.45 27.94 38.87C27.94 38.87 27.93 38.87 27.93 38.88C27.66 39.06 27.42 39.24 27.22 39.42L27.19 39.45C27.16 39.48 27.13 39.5 27.1 39.53C27.06 39.57 27.03 39.61 26.99 39.65L26.99 39.66C26.75 39.93 26.62 40.17 26.58 40.38L26.58 40.39ZM42.11 45.04C46.45 45.04 50.51 44.47 53.55 43.44C56.58 42.41 57.65 41.22 57.65 40.52C57.65 40.14 57.32 39.6 56.52 39.03L31.38 43.66C34.33 44.55 38.1 45.04 42.11 45.04ZM6.5 41.25C6.57 41.29 6.63 41.34 6.68 41.4C6.9 41.61 7.03 41.92 7.03 42.23C7.03 42.3 7.02 42.38 7 42.46C6.99 42.53 6.97 42.6 6.94 42.67C6.91 42.74 6.87 42.81 6.83 42.88C6.79 42.94 6.74 43 6.68 43.06C6.63 43.11 6.57 43.16 6.5 43.2C6.44 43.24 6.37 43.28 6.3 43.31C6.16 43.37 6.01 43.4 5.85 43.4C5.78 43.4 5.7 43.39 5.63 43.38C5.4 43.33 5.19 43.22 5.03 43.06C4.97 43 4.92 42.94 4.88 42.88C4.84 42.81 4.8 42.74 4.77 42.67C4.74 42.6 4.72 42.53 4.71 42.46C4.69 42.38 4.68 42.3 4.68 42.23C4.68 42.15 4.69 42.07 4.71 42C4.72 41.92 4.74 41.85 4.77 41.78C4.8 41.71 4.84 41.64 4.88 41.58C4.92 41.51 4.97 41.45 5.03 41.4C5.08 41.34 5.14 41.29 5.2 41.25C5.27 41.21 5.34 41.17 5.41 41.14C5.48 41.11 5.55 41.09 5.63 41.08C5.78 41.05 5.93 41.05 6.08 41.08C6.16 41.09 6.23 41.11 6.3 41.14C6.37 41.17 6.44 41.21 6.5 41.25ZM53.55 53.21C56.58 52.18 57.65 50.99 57.65 50.29L57.65 44.09C56.83 44.63 55.74 45.17 54.31 45.66C51.03 46.77 46.7 47.38 42.11 47.38C37.52 47.38 33.19 46.77 29.92 45.66C28.48 45.17 27.39 44.63 26.57 44.09L26.57 49.69L26.57 49.69L26.57 50.29C26.57 50.99 27.64 52.18 30.67 53.21C33.71 54.24 37.77 54.81 42.11 54.81C46.45 54.81 50.51 54.24 53.55 53.21Z" fill="#F1CDB3" fill-opacity="1.000000" fill-rule="evenodd"/>
</svg>
