<svg width="60.000000" height="60.000000" viewBox="0 0 60 60" fill="none" xmlns="http://www.w3.org/2000/svg" xmlns:xlink="http://www.w3.org/1999/xlink">
	<desc>
			Created with Pixso.
	</desc>
	<defs/>
	<rect id="icon-shampoos" rx="-0.500000" width="59.000000" height="58.999882" transform="translate(0.500000 0.500000)" fill="#FFFFFF" fill-opacity="0"/>
	<path id="shampoos" d="M37.13 17.18L37.13 11.73C37.13 11.01 36.54 10.43 35.82 10.43L34.84 10.43L34.84 1.3C34.84 0.58 34.26 0 33.54 0L25.06 0C24.34 0 23.76 0.58 23.76 1.3L23.76 10.43L22.78 10.43C22.06 10.43 21.47 11.01 21.47 11.73L21.47 17.18C16.89 19 13.65 23.48 13.65 28.71L13.65 58.69C13.65 59.41 14.23 60 14.95 60L43.65 60C44.37 60 44.95 59.41 44.95 58.69L44.95 28.71C44.95 23.48 41.71 19 37.13 17.18ZM26.36 2.6L32.23 2.6L32.23 10.43L26.36 10.43L26.36 2.6ZM24.08 13.04L34.52 13.04L34.52 16.3L24.08 16.3L24.08 13.04ZM42.34 57.39L16.26 57.39L16.26 28.71C16.26 23.3 20.65 18.91 26.05 18.91L32.54 18.91C37.95 18.91 42.34 23.3 42.34 28.71L42.34 57.39ZM37.78 27.39L20.82 27.39C20.1 27.39 19.52 27.97 19.52 28.69L19.52 52.82C19.52 53.54 20.1 54.13 20.82 54.13L37.78 54.13C38.5 54.13 39.08 53.54 39.08 52.82L39.08 44.62C39.08 43.9 38.5 43.32 37.78 43.32C37.06 43.32 36.47 43.9 36.47 44.62L36.47 51.52L22.13 51.52L22.13 30L36.47 30L36.47 34.12C36.47 34.84 37.06 35.43 37.78 35.43C38.5 35.43 39.08 34.84 39.08 34.12L39.08 28.69C39.08 27.97 38.5 27.39 37.78 27.39ZM30.93 32.07C33.09 32.07 34.84 33.82 34.84 35.98C34.84 38.14 33.09 39.89 30.93 39.89C28.77 39.89 27.01 38.14 27.01 35.98C27.01 33.82 28.77 32.07 30.93 32.07ZM29.62 35.98C29.62 36.7 30.21 37.28 30.93 37.28C31.65 37.28 32.23 36.7 32.23 35.98C32.23 35.26 31.65 34.68 30.93 34.68C30.21 34.68 29.62 35.26 29.62 35.98ZM36.47 39.36C36.47 38.64 37.06 38.06 37.78 38.06C38.5 38.06 39.08 38.64 39.08 39.36L39.08 39.49C39.08 40.21 38.5 40.8 37.78 40.8C37.06 40.8 36.47 40.21 36.47 39.49L36.47 39.36ZM27.99 41.15C25.83 41.15 24.07 42.9 24.07 45.06C24.07 47.22 25.83 48.97 27.99 48.97C30.14 48.97 31.9 47.22 31.9 45.06C31.9 42.9 30.14 41.15 27.99 41.15ZM27.99 46.36C27.27 46.36 26.68 45.78 26.68 45.06C26.68 44.34 27.27 43.76 27.99 43.76C28.71 43.76 29.29 44.34 29.29 45.06C29.29 45.78 28.71 46.36 27.99 46.36Z" fill="#F1CDB3" fill-opacity="1.000000" fill-rule="evenodd"/>
</svg>
