<svg width="60.000000" height="59.999756" viewBox="0 0 60 59.9998" fill="none" xmlns="http://www.w3.org/2000/svg" xmlns:xlink="http://www.w3.org/1999/xlink">
	<desc>
			Created with Pixso.
	</desc>
	<defs/>
	<rect id="icon-sleeping-area" rx="-0.500000" width="59.000000" height="58.999847" transform="translate(0.500000 0.500000)" fill="#FFFFFF" fill-opacity="0"/>
	<path id="sleeping-area" d="M30.98 0.22L57.95 19.96C58.26 20.19 58.43 20.55 58.43 20.91C58.43 21.15 58.35 21.39 58.2 21.6L54.68 26.42C54.58 26.54 54.47 26.65 54.34 26.73C54.21 26.81 54.06 26.86 53.91 26.88C53.76 26.91 53.6 26.9 53.45 26.86C53.3 26.83 53.16 26.76 53.04 26.67L52.04 25.94L52.04 58.82C52.04 59.47 51.51 59.99 50.86 59.99L9.76 59.99C9.12 59.99 8.59 59.47 8.59 58.82L8.59 25.89L7.53 26.67C7.4 26.76 7.26 26.83 7.11 26.86C6.96 26.9 6.81 26.91 6.66 26.88C6.51 26.86 6.36 26.81 6.23 26.73C6.1 26.65 5.98 26.54 5.89 26.42L2.37 21.6C2.21 21.39 2.14 21.15 2.14 20.91C2.14 20.55 2.31 20.19 2.62 19.96L29.59 0.22C29.79 0.07 30.03 0 30.28 0C30.53 0 30.77 0.07 30.98 0.22ZM30.98 7.62L53.48 24.09L55.62 21.16L30.28 2.62L4.95 21.16L7.09 24.09L29.59 7.62C29.79 7.47 30.03 7.39 30.28 7.39C30.53 7.39 30.77 7.47 30.98 7.62ZM21.97 53.08L49.69 53.08L49.69 24.22L30.28 10.02L12.88 22.76L38.38 22.76C39.03 22.76 39.55 23.28 39.55 23.93C39.55 24.58 39.03 25.1 38.38 25.1L10.94 25.1L10.94 57.65L49.69 57.65L49.69 55.42L21.97 55.42C21.32 55.42 20.79 54.9 20.79 54.25C20.79 53.61 21.32 53.08 21.97 53.08ZM43.68 23.48C43.71 23.55 43.74 23.62 43.75 23.7C43.77 23.77 43.77 23.85 43.77 23.93C43.77 24 43.77 24.08 43.75 24.16C43.74 24.23 43.71 24.31 43.68 24.38C43.65 24.45 43.62 24.52 43.57 24.58C43.53 24.64 43.48 24.7 43.43 24.76C43.38 24.81 43.32 24.86 43.25 24.9C43.19 24.94 43.12 24.98 43.05 25.01C42.98 25.04 42.9 25.06 42.83 25.08C42.75 25.09 42.68 25.1 42.6 25.1C42.52 25.1 42.45 25.09 42.37 25.08C42.3 25.06 42.22 25.04 42.15 25.01C42.08 24.98 42.01 24.94 41.95 24.9C41.89 24.86 41.83 24.81 41.77 24.76C41.72 24.7 41.67 24.64 41.63 24.58C41.59 24.52 41.55 24.45 41.52 24.38C41.49 24.31 41.47 24.23 41.45 24.16C41.44 24.08 41.43 24 41.43 23.93C41.43 23.85 41.44 23.77 41.45 23.7C41.47 23.62 41.49 23.55 41.52 23.48C41.55 23.41 41.59 23.34 41.63 23.28C41.67 23.21 41.72 23.15 41.77 23.1C41.99 22.88 42.29 22.76 42.6 22.76C42.91 22.76 43.21 22.88 43.43 23.1C43.48 23.15 43.53 23.21 43.57 23.28C43.62 23.34 43.65 23.41 43.68 23.48ZM43.74 27.94C44.45 28.64 44.84 29.58 44.84 30.57C44.84 30.64 44.84 30.7 44.83 30.77C44.71 33.09 44.39 35.38 43.87 37.64C44.03 38.04 44.16 38.44 44.28 38.86C44.43 39.4 44.55 39.96 44.63 40.52C44.68 40.94 44.71 41.36 44.71 41.78C44.71 43.96 43.92 46.04 42.43 47.76C40.48 50 37.6 51.28 34.52 51.28L26.05 51.28C20.43 51.28 15.85 47.01 15.85 41.77C15.85 41.35 15.88 40.93 15.94 40.52C16.08 39.54 16.33 38.57 16.69 37.64C16.45 36.57 16.25 35.5 16.09 34.41C15.92 33.2 15.8 31.99 15.73 30.77C15.73 30.7 15.73 30.63 15.73 30.57C15.73 29.46 16.21 28.42 17.08 27.71C18 26.96 19.19 26.69 20.34 26.99C20.35 26.99 20.37 26.99 20.38 27C22.55 27.55 24.67 28.29 26.71 29.19C27.22 29.07 27.74 28.98 28.25 28.91C28.92 28.82 29.61 28.78 30.28 28.78C31.49 28.78 32.68 28.91 33.85 29.19C35.9 28.29 38.02 27.55 40.19 26.99C40.49 26.92 40.8 26.87 41.11 26.87C42.08 26.86 43.04 27.25 43.74 27.94ZM42.49 30.65L42.49 30.64C42.5 30.62 42.5 30.6 42.5 30.58L42.5 30.57L42.5 30.57C42.5 30.39 42.46 30.21 42.39 30.05C42.32 29.88 42.22 29.74 42.09 29.61C41.84 29.36 41.49 29.21 41.14 29.21L41.13 29.21C41.03 29.22 40.92 29.23 40.82 29.25C38.64 29.81 36.5 30.56 34.45 31.49C34.2 31.61 33.92 31.63 33.66 31.56C32.57 31.27 31.43 31.12 30.28 31.12C29.71 31.12 29.13 31.16 28.56 31.23C28 31.31 27.45 31.41 26.91 31.56C26.64 31.63 26.36 31.61 26.12 31.49C24.07 30.56 21.94 29.81 19.77 29.26L19.74 29.25C19.64 29.23 19.53 29.21 19.42 29.21C19.11 29.21 18.81 29.32 18.57 29.52C18.25 29.79 18.07 30.16 18.07 30.57C18.07 30.6 18.07 30.62 18.07 30.65C18.13 31.79 18.25 32.94 18.41 34.08C18.58 35.22 18.79 36.35 19.06 37.46C19.08 37.55 19.09 37.65 19.09 37.74C19.09 37.89 19.06 38.05 19 38.2C18.64 39.04 18.39 39.93 18.26 40.84C18.22 41.15 18.2 41.46 18.2 41.77C18.2 45.72 21.72 48.94 26.05 48.94L34.51 48.94C36.92 48.94 39.16 47.95 40.66 46.22C41.78 44.94 42.37 43.38 42.37 41.77C42.37 41.46 42.35 41.15 42.3 40.84C42.24 40.39 42.15 39.93 42.02 39.49C41.9 39.05 41.75 38.61 41.57 38.19C41.51 38.05 41.48 37.89 41.48 37.74C41.48 37.65 41.49 37.55 41.51 37.46C42.04 35.23 42.37 32.94 42.49 30.65ZM37.1 37.36L38.84 38.16C39.27 38.36 39.52 38.78 39.52 39.23C39.52 39.39 39.49 39.56 39.41 39.71C39.22 40.14 38.79 40.4 38.35 40.4C38.18 40.4 38.01 40.36 37.86 40.29L36.61 39.72L35.36 40.29C34.77 40.56 34.07 40.3 33.8 39.71C33.73 39.56 33.7 39.39 33.7 39.23C33.7 38.78 33.95 38.36 34.38 38.16L36.12 37.36C36.27 37.29 36.44 37.26 36.61 37.26C36.78 37.26 36.94 37.29 37.1 37.36ZM24.45 37.36L26.19 38.16C26.62 38.36 26.87 38.78 26.87 39.23C26.87 39.39 26.84 39.56 26.76 39.71C26.49 40.3 25.8 40.56 25.21 40.29L23.96 39.72L22.71 40.29C22.57 40.36 22.41 40.39 22.26 40.4C22.11 40.4 21.95 40.38 21.81 40.33C21.66 40.27 21.53 40.19 21.42 40.09C21.31 39.98 21.22 39.85 21.15 39.71C21.08 39.56 21.05 39.39 21.05 39.23C21.05 38.78 21.3 38.36 21.73 38.16L23.47 37.36C23.62 37.29 23.79 37.26 23.96 37.26C24.13 37.26 24.29 37.29 24.45 37.36ZM31.46 42.54C31.46 43.1 31.92 43.56 32.48 43.56C33.13 43.56 33.65 44.09 33.65 44.73C33.65 45.38 33.13 45.9 32.48 45.9C31.69 45.91 30.91 45.62 30.31 45.11C29.71 45.63 28.94 45.95 28.09 45.95C27.44 45.95 26.91 45.42 26.91 44.78C26.91 44.13 27.44 43.6 28.09 43.6C28.65 43.6 29.11 43.14 29.11 42.58L29.11 42.54C29.11 41.89 29.64 41.36 30.28 41.36C30.93 41.36 31.46 41.89 31.46 42.54ZM18.83 53.8C18.86 53.87 18.88 53.95 18.89 54.02C18.91 54.1 18.92 54.18 18.92 54.25C18.92 54.48 18.85 54.71 18.72 54.9C18.68 54.97 18.63 55.03 18.57 55.08C18.52 55.14 18.46 55.18 18.4 55.23C18.2 55.35 17.98 55.42 17.75 55.42C17.67 55.42 17.59 55.42 17.52 55.4C17.44 55.39 17.37 55.36 17.3 55.33C17.23 55.31 17.16 55.27 17.09 55.23C17.03 55.18 16.97 55.14 16.92 55.08C16.86 55.03 16.81 54.97 16.77 54.9C16.73 54.84 16.69 54.77 16.66 54.7C16.6 54.56 16.57 54.41 16.57 54.26L16.57 54.25C16.57 54.18 16.58 54.1 16.6 54.02C16.63 53.87 16.69 53.73 16.77 53.6C16.81 53.54 16.86 53.48 16.92 53.42C16.97 53.37 17.03 53.32 17.09 53.28C17.16 53.24 17.23 53.2 17.3 53.17C17.37 53.14 17.44 53.12 17.52 53.1C17.67 53.07 17.82 53.07 17.97 53.1C18.12 53.13 18.27 53.19 18.4 53.28C18.46 53.32 18.52 53.37 18.57 53.42C18.63 53.48 18.68 53.54 18.72 53.6C18.76 53.66 18.8 53.73 18.83 53.8Z" fill="#F1CDB3" fill-opacity="1.000000" fill-rule="evenodd"/>
</svg>
