<svg width="60.000000" height="60.000000" viewBox="0 0 60 60" fill="none" xmlns="http://www.w3.org/2000/svg" xmlns:xlink="http://www.w3.org/1999/xlink">
	<desc>
			Created with Pixso.
	</desc>
	<defs>
		<clipPath id="clip151_165">
			<rect id="icon-pet-food" rx="-0.500000" width="59.000000" height="59.000000" transform="translate(0.500000 0.500000)" fill="white" fill-opacity="0"/>
		</clipPath>
	</defs>
	<rect id="icon-pet-food" rx="-0.500000" width="59.000000" height="59.000000" transform="translate(0.500000 0.500000)" fill="#FFFFFF" fill-opacity="0"/>
	<g clip-path="url(#clip151_165)">
		<path id="Vector" d="M52.89 25.49L47.14 9.74L47.14 1.42C47.14 0.63 46.5 0 45.71 0L14.28 0C13.49 0 12.85 0.63 12.85 1.42L12.85 9.74L7.1 25.49C6.41 27.36 6.07 29.33 6.07 31.32L6.07 55.07C6.07 57.79 8.28 60 10.99 60L49 60C51.71 60 53.92 57.79 53.92 55.07L53.92 31.32C53.92 29.32 53.58 27.36 52.89 25.49ZM15.71 2.85L44.28 2.85L44.28 8.57L15.71 8.57L15.71 2.85ZM51.07 50.13L30.9 50.13C30.11 50.13 29.47 50.77 29.47 51.56C29.47 52.34 30.11 52.98 30.9 52.98L51.07 52.98L51.07 55.07C51.07 56.21 50.14 57.14 49 57.14L10.99 57.14C9.85 57.14 8.92 56.21 8.92 55.07L8.92 31.32C8.92 29.66 9.21 28.03 9.78 26.47L15.28 11.42L44.71 11.42L50.21 26.47C50.78 28.03 51.07 29.66 51.07 31.32L51.07 50.13ZM29.55 25.77C32.11 25.77 34.19 23.69 34.19 21.13C34.19 18.57 32.11 16.48 29.55 16.48C26.99 16.48 24.9 18.57 24.9 21.13C24.9 23.69 26.99 25.77 29.55 25.77ZM29.55 19.34C30.53 19.34 31.33 20.14 31.33 21.13C31.33 22.11 30.53 22.91 29.55 22.91C28.56 22.91 27.76 22.11 27.76 21.13C27.76 20.14 28.56 19.34 29.55 19.34ZM39.55 22.01C36.99 22.01 34.9 24.09 34.9 26.65C34.9 29.21 36.99 31.29 39.55 31.29C42.11 31.29 44.19 29.21 44.19 26.65C44.19 24.09 42.11 22.01 39.55 22.01ZM19.55 22.01C22.11 22.01 24.19 24.09 24.19 26.65C24.19 29.21 22.11 31.29 19.55 31.29C16.99 31.29 14.9 29.21 14.9 26.65C14.9 24.09 16.99 22.01 19.55 22.01ZM39.55 28.44C38.56 28.44 37.76 27.64 37.76 26.65C37.76 25.67 38.56 24.87 39.55 24.87C40.53 24.87 41.33 25.67 41.33 26.65C41.33 27.64 40.53 28.44 39.55 28.44ZM17.76 26.65C17.76 27.64 18.56 28.44 19.55 28.44C20.53 28.44 21.33 27.64 21.33 26.65C21.33 25.67 20.53 24.87 19.55 24.87C18.56 24.87 17.76 25.67 17.76 26.65ZM29.55 28.63C32.6 28.63 35.15 30.87 35.61 33.8C38.03 34.79 39.61 37.27 39.41 39.96C39.18 42.96 36.75 45.39 33.75 45.61C33.59 45.62 33.44 45.63 33.28 45.63C32.29 45.63 31.3 45.39 30.42 44.92C29.86 44.63 29.23 44.63 28.67 44.92C27.65 45.46 26.5 45.7 25.34 45.61C22.35 45.39 19.91 42.96 19.68 39.96C19.48 37.27 21.06 34.79 23.48 33.8C23.95 30.87 26.49 28.63 29.55 28.63ZM33.54 42.76C35.14 42.64 36.44 41.35 36.56 39.74C36.68 38.1 35.57 36.61 33.96 36.27C33.64 36.2 33.35 36.02 33.14 35.76C32.93 35.5 32.82 35.18 32.83 34.84L32.83 34.76C32.83 32.96 31.36 31.48 29.55 31.48C27.73 31.48 26.26 32.96 26.26 34.77L26.26 34.84C26.27 35.17 26.16 35.5 25.95 35.76C25.75 36.02 25.45 36.2 25.13 36.27C23.52 36.61 22.41 38.1 22.53 39.74C22.66 41.35 23.95 42.64 25.56 42.76C26.18 42.81 26.79 42.68 27.34 42.39C28.02 42.03 28.78 41.85 29.55 41.85C30.32 41.85 31.07 42.03 31.75 42.39C32.3 42.68 32.91 42.81 33.54 42.76ZM24.34 50.13L24.69 50.13C25.48 50.13 26.12 50.77 26.12 51.56C26.12 52.34 25.48 52.98 24.69 52.98L24.34 52.98C23.55 52.98 22.91 52.34 22.91 51.56C22.91 50.77 23.55 50.13 24.34 50.13Z" fill="#F1CDB3" fill-opacity="1.000000" fill-rule="evenodd"/>
	</g>
</svg>
