<svg width="60.000000" height="60.000000" viewBox="0 0 60 60" fill="none" xmlns="http://www.w3.org/2000/svg" xmlns:xlink="http://www.w3.org/1999/xlink">
	<desc>
			Created with Pixso.
	</desc>
	<defs/>
	<rect id="icon-bowls-and-cups" rx="-0.500000" width="58.999996" height="59.000000" transform="translate(0.500000 0.500000)" fill="#FFFFFF" fill-opacity="0"/>
	<path id="bowls-and-cups" d="M59.98 39.85L57.12 20.64C57.07 15.06 53.69 9.89 47.81 6.43C42.94 3.57 36.62 2 30 2C23.37 2 17.05 3.57 12.18 6.43C6.3 9.89 2.92 15.06 2.87 20.64L0.01 39.85C0 39.92 0 39.98 0 40.05C0 45.7 3.76 50.93 10.32 54.4C15.7 57.25 22.68 58.81 30 58.81C37.31 58.81 44.29 57.25 49.67 54.4C56.23 50.93 60 45.7 60 40.05C59.99 39.98 59.99 39.92 59.98 39.85ZM13.56 8.79C18.02 6.17 23.85 4.72 30 4.72C36.14 4.72 41.97 6.17 46.43 8.79C51.49 11.76 54.39 16.12 54.39 20.76C54.39 25.39 51.49 29.75 46.43 32.73C41.97 35.34 36.14 36.79 30 36.79C23.85 36.79 18.02 35.34 13.56 32.73C8.5 29.75 5.6 25.39 5.6 20.76C5.6 16.12 8.5 11.76 13.56 8.79ZM30 34.06C39.35 34.06 47.6 30.44 50.53 25.05C51.29 23.68 51.67 22.23 51.67 20.75C51.67 17.06 49.31 13.65 45.05 11.14C41 8.76 35.66 7.45 30 7.45C24.33 7.45 18.99 8.76 14.95 11.14C10.68 13.65 8.32 17.06 8.32 20.76C8.32 22.23 8.7 23.68 9.46 25.05C12.39 30.44 20.64 34.06 30 34.06ZM11.05 20.76C11.05 18.07 12.93 15.49 16.33 13.49C19.96 11.36 24.81 10.18 30 10.18C35.18 10.18 40.03 11.36 43.66 13.49C47.06 15.49 48.94 18.07 48.94 20.76C48.94 20.99 48.92 21.23 48.89 21.47C45.13 17.36 37.96 14.74 30 14.74C22.03 14.74 14.86 17.36 11.1 21.47C11.07 21.23 11.05 20.99 11.05 20.76ZM30 31.33C22.15 31.33 15.02 28.51 12.25 24.4C15.02 20.28 22.15 17.47 30 17.47C37.84 17.47 44.97 20.28 47.74 24.4C44.97 28.51 37.84 31.33 30 31.33ZM23.88 23.89L23.46 23.89C22.71 23.89 22.09 24.5 22.09 25.26C22.09 26.01 22.71 26.62 23.46 26.62L23.88 26.62C24.63 26.62 25.24 26.01 25.24 25.26C25.24 24.5 24.63 23.89 23.88 23.89ZM30.34 23.89L40.07 23.89C40.82 23.89 41.43 24.5 41.43 25.26C41.43 26.01 40.82 26.62 40.07 26.62L30.34 26.62C29.58 26.62 28.97 26.01 28.97 25.26C28.97 24.5 29.58 23.89 30.34 23.89ZM48.39 51.99C43.4 54.63 36.87 56.08 30 56.08C23.12 56.08 16.59 54.63 11.6 51.99C6 49.03 2.77 44.72 2.72 40.15L4.6 27.53C6.17 30.46 8.75 33.06 12.18 35.08C17.05 37.94 23.37 39.51 30 39.51C36.62 39.51 42.94 37.94 47.81 35.08C51.24 33.06 53.82 30.46 55.39 27.53L57.27 40.15C57.22 44.72 53.99 49.03 48.39 51.99ZM29.46 41.88C29.63 41.8 29.81 41.77 30 41.77C30.18 41.77 30.36 41.8 30.53 41.88C30.7 41.95 30.85 42.05 30.98 42.19C31.87 43.12 34.77 46.33 34.77 48.59C34.77 51.22 32.63 53.36 30 53.36C27.36 53.36 25.22 51.22 25.22 48.59C25.22 46.33 28.12 43.12 29.01 42.19C29.14 42.05 29.29 41.95 29.46 41.88ZM27.95 48.59C27.95 49.72 28.87 50.63 30 50.63C31.12 50.63 32.04 49.72 32.04 48.59C32.04 47.98 31.09 46.52 30 45.19C28.9 46.52 27.95 47.98 27.95 48.59Z" fill="#F1CDB3" fill-opacity="1.000000" fill-rule="evenodd"/>
</svg>
