<svg width="40.000000" height="32.000000" viewBox="0 0 40 32" fill="none" xmlns="http://www.w3.org/2000/svg" xmlns:xlink="http://www.w3.org/1999/xlink">
	<desc>
			Created with Pixso.
	</desc>
	<defs/>
	<rect id="icon-email" rx="-0.500000" width="39.000000" height="31.000000" transform="translate(0.500000 0.500000)" fill="#FFFFFF" fill-opacity="0"/>
	<path id="mail" d="M0.68 3L39.31 3C39.49 3 39.67 3.07 39.79 3.2C39.92 3.33 40 3.51 40 3.69L40 28.3C40 28.48 39.92 28.66 39.79 28.79C39.67 28.92 39.49 29 39.31 29L0.68 29C0.5 29 0.32 28.92 0.2 28.79C0.07 28.66 0 28.48 0 28.3L0 3.69C0 3.51 0.07 3.33 0.2 3.2C0.32 3.07 0.5 3 0.68 3ZM30.4 11.47C30.47 11.54 30.53 11.6 30.59 11.66L37.67 4.39L2.32 4.39L19.99 22.54L22.77 19.69C22.54 19.04 22.69 18.35 22.83 17.73C22.9 17.38 22.97 17.05 22.97 16.78C22.97 16.5 22.9 16.17 22.83 15.83C22.67 15.11 22.5 14.3 22.91 13.57C23.33 12.83 24.12 12.58 24.82 12.36C25.15 12.26 25.45 12.16 25.67 12.03C25.87 11.92 26.1 11.7 26.34 11.47C26.85 10.98 27.49 10.37 28.37 10.37C29.24 10.37 29.89 10.98 30.4 11.47ZM33.83 19.98C33.62 20.36 33.31 20.61 32.96 20.79L38.63 26.61L38.63 5.38L31.85 12.34L31.91 12.36C32.62 12.58 33.41 12.83 33.83 13.57C34.24 14.3 34.07 15.11 33.91 15.83C33.83 16.17 33.76 16.5 33.76 16.78C33.76 17.05 33.83 17.38 33.91 17.73C34.07 18.45 34.24 19.26 33.83 19.98ZM1.36 26.61L11.7 16L1.36 5.38L1.36 26.61ZM32.65 19.28C32.79 19.03 32.68 18.52 32.57 18.03C32.48 17.62 32.39 17.21 32.39 16.78C32.39 16.35 32.48 15.93 32.57 15.53C32.68 15.03 32.79 14.52 32.65 14.27C32.49 14 31.99 13.84 31.51 13.69C31.13 13.57 30.73 13.44 30.38 13.24C30.04 13.04 29.75 12.76 29.46 12.49C29.07 12.12 28.7 11.77 28.37 11.77C28.04 11.77 27.67 12.12 27.27 12.49C26.99 12.76 26.7 13.04 26.36 13.24C26.01 13.44 25.61 13.57 25.23 13.69C24.75 13.84 24.25 14 24.09 14.27C23.95 14.52 24.06 15.03 24.17 15.53L24.17 15.53C24.25 15.93 24.34 16.35 24.34 16.78C24.34 17.21 24.25 17.62 24.17 18.03L24.17 18.03C24.06 18.52 23.95 19.03 24.09 19.28C24.25 19.55 24.75 19.71 25.23 19.86C25.61 19.99 26.01 20.11 26.36 20.32C26.7 20.52 26.99 20.8 27.27 21.07C27.67 21.44 28.04 21.79 28.37 21.79C28.7 21.79 29.07 21.44 29.46 21.07C29.75 20.8 30.04 20.52 30.38 20.32C30.73 20.11 31.13 19.99 31.51 19.86C31.99 19.71 32.49 19.55 32.65 19.28ZM24.88 16.78C24.88 14.83 26.45 13.24 28.37 13.24C30.29 13.24 31.86 14.83 31.86 16.78C31.86 18.73 30.29 20.32 28.37 20.32C26.45 20.32 24.88 18.73 24.88 16.78ZM26.25 16.78C26.25 17.96 27.2 18.93 28.37 18.93C29.54 18.93 30.49 17.96 30.49 16.78C30.49 15.59 29.54 14.63 28.37 14.63C27.2 14.63 26.25 15.59 26.25 16.78ZM19.51 24.02L12.66 16.98L2.32 27.6L37.67 27.6L31.55 21.31C31.36 21.38 31.2 21.44 31.07 21.52C30.86 21.64 30.64 21.85 30.4 22.08C29.89 22.57 29.24 23.18 28.37 23.18C27.49 23.18 26.85 22.57 26.34 22.08C26.1 21.85 25.87 21.64 25.67 21.52C25.45 21.39 25.15 21.29 24.82 21.19C24.44 21.07 24.04 20.94 23.68 20.73L20.48 24.02C20.42 24.08 20.34 24.14 20.26 24.17C20.18 24.21 20.09 24.23 19.99 24.23C19.9 24.23 19.81 24.21 19.73 24.17C19.65 24.14 19.57 24.08 19.51 24.02Z" fill="#F1CDB3" fill-opacity="1.000000" fill-rule="evenodd"/>
</svg>
